<?xml version="1.0" encoding="UTF-8" standalone="no"?>
<svg
   version="1.1"
   id="svg3"
   sodipodi:docname="wgat.svg"
   inkscape:version="1.1 (c68e22c387, 2021-05-23)"
   xmlns:inkscape="http://www.inkscape.org/namespaces/inkscape"
   xmlns:sodipodi="http://sodipodi.sourceforge.net/DTD/sodipodi-0.dtd"
   xmlns="http://www.w3.org/2000/svg"
   xmlns:svg="http://www.w3.org/2000/svg">
  <defs
     id="defs7" />
  <sodipodi:namedview
     id="namedview5"
     pagecolor="#505050"
     bordercolor="#ffffff"
     borderopacity="1"
     inkscape:pageshadow="0"
     inkscape:pageopacity="0"
     inkscape:pagecheckerboard="1"
     showgrid="false"
     inkscape:zoom="14.48"
     inkscape:cx="72.893646"
     inkscape:cy="249.34392"
     inkscape:window-width="1920"
     inkscape:window-height="1027"
     inkscape:window-x="-8"
     inkscape:window-y="-8"
     inkscape:window-maximized="1"
     inkscape:current-layer="svg3" />
  <path
     id="path"
     fill-rule="evenodd"
     d="m 68.938121,244.1937 a 1,1 0 0 0 -1.42,0 l -0.12,0.12 a 1,1 0 0 0 0,1.41 l 6.2,6.21 -6.2,6.2 a 1,1 0 0 0 0,1.42 l 0.12,0.12 a 1,1 0 0 0 1.41,0 l 6.21,-6.2 6.2,6.2 a 1,1 0 0 0 1.42,0 l 0.12,-0.12 a 1,1 0 0 0 0,-1.41 l -6.2,-6.21 6.2,-6.2 a 1,1 0 0 0 0,-1.42 l -0.12,-0.12 a 1,1 0 0 0 -1.41,0 l -6.21,6.2 z"
     clip-rule="evenodd" />
</svg>
